# xmcd CD database file
#
# Track frame offsets:
#	151
#	12209
#	30528
#	45553
#	63192
#	75169
#	88678
#	102331
#	119903
#	134340
#
# Disc length: 2020 seconds
#
# Revision: 0
# Processed by: cddbd v1.5.1PL0 Copyright (c) Steve Scherf et al.
# Submitted via: CDex 1.50
#
DISCID=7707e20a
DTITLE=Godro - Encore un soir
DYEAR=2004
DGENRE=Country
TTITLE0=Coeur brisé
TTITLE1=Chanson pour Mylène
TTITLE2=Je veux vivre mon country
TTITLE3=Le train de mon retour
TTITLE4=Dans tes bras
TTITLE5=Tu m'appartiendras
TTITLE6=Fleur de ma vie
TTITLE7=Je n'oublierai jamais
TTITLE8=Encore un soir
TTITLE9=T'es partie
EXTD=YEAR: 2004
EXTT0=
EXTT1=
EXTT2=
EXTT3=
EXTT4=
EXTT5=
EXTT6=
EXTT7=
EXTT8=
EXTT9=
PLAYORDER=
